{"title":"Holiday (2014) DVDScr - 1CD - Xvid - Team IcTv","uid":10305550,"size":771877212,"categoryP":"video","categoryS":"movies","magnet":"?xt=urn:btih:36fd41dbf98531bb453c565c6c90a7e08052d58a&amp;dn=Holiday+%282014%29+DVDScr+-+1CD+-+Xvid+-+Team+IcTv&amp;tr=udp%3A%2F%2Ftracker.openbittorrent.com%3A80&amp;tr=udp%3A%2F%2Fopen.demonii.com%3A1337&amp;tr=udp%3A%2F%2Ftracker.coppersurfer.tk%3A6969&amp;tr=udp%3A%2F%2Fexodus.desync.com%3A6969","seeders":4,"leechers":1,"uploader":"mr.Floppy","files":3,"time":1402127401,"description":"Holiday (2014) DVDScr - 1CD - Xvid - Team IcTv\n\n\ninfo:\n\nGeneral\nComplete name : Holiday (2014) DVDScr - 1CD - Xvid - Team IcTv\nFormat : AVI\nFormat/Info : Audio Video Interleave\nFile size : 689 MiB\nDuration : 2h 33mn\nOverall bit rate : 630 Kbps\n\nVideo\nID : 0\nFormat : MPEG-4 Visual\nFormat profile : Advanced Simple@L5\nFormat settings, BVOP : 2\nFormat settings, QPel : No\nFormat settings, GMC : No warppoints\nFormat settings, Matrix : Default (H.263)\nCodec ID : XVID\nCodec ID/Hint : XviD\nDuration : 2h 33mn\nBit rate : 542 Kbps\nWidth : 640 pixels\nHeight : 272 pixels\nDisplay aspect ratio : 2.35:1\nFrame rate : 29.970 fps\nColor space : YUV\nChroma subsampling : 4:2:0\nBit depth : 8 bits\nScan type : Progressive\nCompression mode : Lossy\nBits/(Pixel*Frame) : 0.104\nStream size : 594 MiB (86%)\nWriting library : XviD 1.2.1 (UTC 2008-12-04)\n\nAudio\nID : 1\nFormat : MPEG Audio\nFormat version : Version 1\nFormat profile : Layer 3\nMode : Joint stereo\nMode extension : MS Stereo\nCodec ID : 55\nCodec ID/Hint : MP3\nDuration : 2h 33mn\nBit rate mode : Constant\nBit rate : 80.0 Kbps\nChannel(s) : 2 channels\nSampling rate : 32.0 KHz\nCompression mode : Lossy\nStream size : 87.6 MiB (13%)\nAlignment : Aligned on interleaves\nInterleave, duration : 133 ms (4.00 video frames)\nInterleave, preload duration : 216 ms\nTitle : VTS_01_1 T80 3_2ch 448Kbps DELAY 0ms\nWriting library : LAME3.99r\nEncoding settings : -m j -V 4 -q 2 -lowpass 13.5 -b 80\n\n\nScreens:\n &lt;a href=&quot;\nhttp://imgfun.biz/x/img-5392a7210553c.html&quot; rel=&quot;nofollow&quot; target=&quot;_NEW&quot;&gt;\nhttp://imgfun.biz/x/img-5392a7210553c.html&lt;/a&gt;\n &lt;a href=&quot;\nhttp://imgfun.biz/x/img-5392a73901d57.html&quot; rel=&quot;nofollow&quot; target=&quot;_NEW&quot;&gt;\nhttp://imgfun.biz/x/img-5392a73901d57.html&lt;/a&gt;\n\n\n\n\n","torrent":{"xt":"urn:btih:36fd41dbf98531bb453c565c6c90a7e08052d58a","amp;dn":"Holiday+%282014%29+DVDScr+-+1CD+-+Xvid+-+Team+IcTv","amp;tr":["udp%3A%2F%2Ftracker.openbittorrent.com%3A80","udp%3A%2F%2Fopen.demonii.com%3A1337","udp%3A%2F%2Ftracker.coppersurfer.tk%3A6969","udp%3A%2F%2Fexodus.desync.com%3A6969"],"infoHash":"36fd41dbf98531bb453c565c6c90a7e08052d58a","infoHashBuffer":{"type":"Buffer","data":[54,253,65,219,249,133,49,187,69,60,86,92,108,144,167,224,128,82,213,138]},"announce":[],"urlList":[]}}